<svg xmlns="http://www.w3.org/2000/svg" viewBox="-600 -200 1200 400">
  <defs>
    <path id="leaf-pair" d="M 0,0 C -6,-2 -14,-10 -6,-22 C -1,-14 0,-6 0,0 C 0,-6 1,-14 6,-22 C 14,-10 8,-2 0,0" fill="#FFFFFF"/>

    <g id="left-geometry">
      <path d="M -530,-35 L -88.3,-35 A 95 95 0 0 0 -91.7,25 L -450,25 Z" fill="none" stroke="#FFFFFF" stroke-width="10" stroke-linejoin="miter" stroke-miterlimit="4"/>

      <line x1="-423.3" y1="45" x2="-83.7" y2="45" stroke="#FFFFFF" stroke-width="10" stroke-linecap="square"/>

      <path d="M -396.7,65 L -82.5,65 A 105 105 0 0 0 0,105" fill="none" stroke="#FFFFFF" stroke-width="10"/>

      <path d="M -24.6,67.7 A 72 72 0 0 1 -24.6,-67.7" fill="none" stroke="#FFFFFF" stroke-width="2.5"/>

      <use href="#leaf-pair" transform="translate(-24.6, 67.7) rotate(-70)"/>
      <use href="#leaf-pair" transform="translate(-46.3, 55.2) rotate(-50)"/>
      <use href="#leaf-pair" transform="translate(-62.4, 36.0) rotate(-30)"/>
      <use href="#leaf-pair" transform="translate(-70.9, 12.5) rotate(-10)"/>
      <use href="#leaf-pair" transform="translate(-70.9, -12.5) rotate(10)"/>
      <use href="#leaf-pair" transform="translate(-62.4, -36.0) rotate(30)"/>
      <use href="#leaf-pair" transform="translate(-46.3, -55.2) rotate(50)"/>
      <use href="#leaf-pair" transform="translate(-24.6, -67.7) rotate(70)"/>
    </g>
  </defs>

  <use href="#left-geometry"/>

  <use href="#left-geometry" transform="scale(-1, 1)"/>

  <circle cx="0" cy="105" r="14" fill="#FFFFFF"/>
  <circle cx="0" cy="71" r="5" fill="#FFFFFF"/>

  <g font-family="'Montserrat', 'Helvetica Neue', 'Arial', sans-serif" font-weight="900" fill="#FFFFFF" text-anchor="middle" dominant-baseline="central">
    <text x="-290" y="-5" font-size="38" letter-spacing="5">ADVENTURES</text>

    <text x="0" y="0" font-size="38" letter-spacing="1">IN</text>

    <text x="290" y="-5" font-size="38" letter-spacing="5">AVIATION</text>
  </g>
</svg>
